<svg width="1200" height="630" viewBox="0 0 1200 630" fill="none" xmlns="http://www.w3.org/2000/svg">
  <defs>
    <radialGradient id="ogGlow" cx="50%" cy="30%" r="60%">
      <stop offset="0%" stop-color="#0066FF" stop-opacity="0.28"/>
      <stop offset="50%" stop-color="#00D2FF" stop-opacity="0.08"/>
      <stop offset="100%" stop-color="#070B14" stop-opacity="0"/>
    </radialGradient>
    <linearGradient id="vMarkL" x1="6" y1="7" x2="24" y2="25" gradientUnits="userSpaceOnUse">
      <stop offset="0%" stop-color="#0066FF"/>
      <stop offset="100%" stop-color="#00D2FF"/>
    </linearGradient>
    <linearGradient id="vMarkR" x1="42" y1="7" x2="24" y2="25" gradientUnits="userSpaceOnUse">
      <stop offset="0%" stop-color="#4F46E5"/>
      <stop offset="100%" stop-color="#0066FF"/>
    </linearGradient>
    <linearGradient id="vMarkB" x1="24" y1="23" x2="24" y2="43" gradientUnits="userSpaceOnUse">
      <stop offset="0%" stop-color="#00F0FF"/>
      <stop offset="100%" stop-color="#0066FF"/>
    </linearGradient>
    <linearGradient id="ogBorder" x1="0" y1="0" x2="1200" y2="630" gradientUnits="userSpaceOnUse">
      <stop offset="0%" stop-color="#1E293B"/>
      <stop offset="50%" stop-color="#00D2FF" stop-opacity="0.5"/>
      <stop offset="100%" stop-color="#1E293B"/>
    </linearGradient>
  </defs>

  <!-- Deep Canvas -->
  <rect width="1200" height="630" fill="#070B14"/>
  <rect width="1200" height="630" fill="url(#ogGlow)"/>

  <!-- Subtle grid lines -->
  <path d="M 0 120 H 1200 M 0 240 H 1200 M 0 360 H 1200 M 0 480 H 1200 M 200 0 V 630 M 400 0 V 630 M 600 0 V 630 M 800 0 V 630 M 1000 0 V 630" stroke="#1E293B" stroke-opacity="0.3" stroke-width="1"/>

  <!-- Outer Border -->
  <rect x="24" y="24" width="1152" height="582" rx="20" stroke="url(#ogBorder)" stroke-width="2"/>

  <!-- Logo Mark (large 120x120) -->
  <g transform="translate(80, 190) scale(2.5)">
    <path d="M 6 7 L 18 7 L 24 23 L 15 25 Z" fill="url(#vMarkL)"/>
    <path d="M 42 7 L 30 7 L 24 23 L 33 25 Z" fill="url(#vMarkR)"/>
    <path d="M 15 25 L 24 23 L 33 25 L 24 43 Z" fill="url(#vMarkB)"/>
  </g>

  <!-- Wordmark & Tagline -->
  <path d="M250.74 260L239.51 260L220.79 206.36L231.45 206.36L246.14 250.78L244.05 250.78L258.74 206.36L269.39 206.36 M293.15 260.86Q287.10 260.86 282.57 258.13Q278.03 255.39 275.51 250.71Q272.99 246.03 272.99 240.34Q272.99 234.44 275.55 229.87Q278.10 225.30 282.53 222.63Q286.96 219.97 292.43 219.97Q297.04 219.97 300.53 221.48Q304.02 222.99 306.47 225.66Q308.92 228.32 310.22 231.74Q311.51 235.16 311.51 239.12Q311.51 240.13 311.40 241.21Q311.30 242.29 311.01 243.08L280.77 243.08L280.77 235.88L305.68 235.88L301.22 239.26Q301.86 235.95 300.89 233.36Q299.92 230.77 297.72 229.26Q295.53 227.74 292.43 227.74Q289.48 227.74 287.18 229.22Q284.87 230.70 283.68 233.54Q282.50 236.38 282.78 240.42Q282.50 244.02 283.76 246.79Q285.02 249.56 287.50 251.07Q289.98 252.58 293.22 252.58Q296.46 252.58 298.73 251.22Q301 249.85 302.30 247.54L309.93 251.29Q308.78 254.10 306.33 256.26Q303.88 258.42 300.53 259.64Q297.18 260.86 293.15 260.86 M333.54 260.86Q327.28 260.86 322.64 257.88Q317.99 254.89 316.26 249.78L323.32 246.39Q324.83 249.70 327.53 251.58Q330.23 253.45 333.54 253.45Q336.14 253.45 337.65 252.30Q339.16 251.14 339.16 249.27Q339.16 248.12 338.55 247.36Q337.94 246.61 336.89 246.07Q335.85 245.53 334.62 245.17L328.22 243.37Q323.25 241.93 320.69 238.98Q318.14 236.02 318.14 231.99Q318.14 228.39 319.97 225.69Q321.81 222.99 325.08 221.48Q328.36 219.97 332.61 219.97Q338.15 219.97 342.40 222.63Q346.65 225.30 348.45 230.12L341.25 233.50Q340.24 230.84 337.86 229.26Q335.49 227.67 332.54 227.67Q330.16 227.67 328.79 228.75Q327.42 229.83 327.42 231.56Q327.42 232.64 328 233.43Q328.58 234.22 329.62 234.73Q330.66 235.23 332.03 235.66L338.30 237.54Q343.12 238.98 345.75 241.86Q348.38 244.74 348.38 248.91Q348.38 252.44 346.50 255.14Q344.63 257.84 341.32 259.35Q338.01 260.86 333.54 260.86 M365.08 260L355.65 260L355.65 205.50L365.08 205.50L365.08 228.54L363.78 227.17Q365.15 223.64 368.28 221.80Q371.42 219.97 375.59 219.97Q379.91 219.97 383.26 221.84Q386.61 223.71 388.48 227.06Q390.35 230.41 390.35 234.80L390.35 260L380.92 260L380.92 237.03Q380.92 234.44 379.91 232.57Q378.90 230.70 377.14 229.65Q375.38 228.61 373 228.61Q370.70 228.61 368.90 229.65Q367.10 230.70 366.09 232.57Q365.08 234.44 365.08 237.03 M410.22 260.86Q406.12 260.86 403.10 259.50Q400.07 258.13 398.42 255.57Q396.76 253.02 396.76 249.63Q396.76 246.39 398.20 243.84Q399.64 241.28 402.66 239.55Q405.69 237.82 410.30 237.10L423.11 235.02L423.11 242.22L412.10 244.09Q409.29 244.59 407.92 245.89Q406.55 247.18 406.55 249.27Q406.55 251.29 408.10 252.48Q409.65 253.66 411.95 253.66Q414.90 253.66 417.17 252.40Q419.44 251.14 420.70 248.91Q421.96 246.68 421.96 244.02L421.96 233.94Q421.96 231.42 419.98 229.72Q418 228.03 414.76 228.03Q411.74 228.03 409.40 229.65Q407.06 231.27 405.98 233.94L398.27 230.19Q399.42 227.10 401.91 224.83Q404.39 222.56 407.78 221.26Q411.16 219.97 415.12 219.97Q419.94 219.97 423.62 221.73Q427.29 223.50 429.34 226.63Q431.39 229.76 431.39 233.94L431.39 260L422.46 260L422.46 253.30L424.48 253.16Q422.97 255.68 420.88 257.37Q418.79 259.06 416.13 259.96Q413.46 260.86 410.22 260.86 M449.54 260L440.10 260L440.10 220.83L448.96 220.83L448.96 229.54L448.24 228.25Q449.61 223.86 452.52 222.13Q455.44 220.40 459.54 220.40L461.85 220.40L461.85 228.75L458.46 228.75Q454.43 228.75 451.98 231.24Q449.54 233.72 449.54 238.18 M486.18 260.86Q480.42 260.86 475.71 258.20Q470.99 255.54 468.22 250.93Q465.45 246.32 465.45 240.42Q465.45 234.51 468.22 229.90Q470.99 225.30 475.67 222.63Q480.35 219.97 486.18 219.97Q491.94 219.97 496.62 222.63Q501.30 225.30 504.08 229.87Q506.85 234.44 506.85 240.42Q506.85 246.32 504.04 250.93Q501.23 255.54 496.55 258.20Q491.87 260.86 486.18 260.86M486.18 252.22Q489.35 252.22 491.76 250.71Q494.18 249.20 495.58 246.50Q496.98 243.80 496.98 240.42Q496.98 236.96 495.58 234.33Q494.18 231.70 491.76 230.16Q489.35 228.61 486.18 228.61Q482.94 228.61 480.50 230.16Q478.05 231.70 476.64 234.33Q475.24 236.96 475.24 240.42Q475.24 243.80 476.64 246.50Q478.05 249.20 480.50 250.71Q482.94 252.22 486.18 252.22" fill="#FFFFFF"/>
  <path d="M228.66 325L224.30 325L224.30 301.16L228.66 301.16 M241.84 325L237.46 325L237.46 305L231.28 305L231.28 301.16L247.92 301.16L247.92 305L241.84 305  M264.78 325.38Q262.51 325.38 260.58 324.55Q258.64 323.72 257.25 322.23Q255.86 320.74 255.22 318.76L258.83 317.19Q259.70 319.24 261.33 320.41Q262.96 321.58 265.01 321.58Q266.16 321.58 267.01 321.21Q267.86 320.84 268.32 320.20Q268.78 319.56 268.78 318.66Q268.78 317.61 268.16 316.92Q267.54 316.23 266.29 315.85L261.71 314.38Q258.93 313.51 257.52 311.78Q256.11 310.06 256.11 307.72Q256.11 305.67 257.12 304.10Q258.13 302.54 259.94 301.66Q261.74 300.78 264.08 300.78Q266.22 300.78 268.02 301.53Q269.81 302.28 271.10 303.61Q272.40 304.94 273.04 306.73L269.46 308.33Q268.75 306.54 267.34 305.56Q265.94 304.58 264.08 304.58Q262.99 304.58 262.16 304.95Q261.33 305.32 260.86 305.98Q260.40 306.63 260.40 307.53Q260.40 308.52 261.04 309.27Q261.68 310.02 262.99 310.44L267.38 311.82Q270.22 312.74 271.65 314.38Q273.07 316.01 273.07 318.41Q273.07 320.46 272.02 322.02Q270.96 323.59 269.10 324.49Q267.25 325.38 264.78 325.38 M284.88 325.38Q282.19 325.38 280.18 324.17Q278.16 322.95 277.04 320.87Q275.92 318.79 275.92 316.26Q275.92 313.64 277.06 311.61Q278.19 309.58 280.16 308.39Q282.13 307.21 284.56 307.21Q286.61 307.21 288.16 307.88Q289.71 308.55 290.80 309.74Q291.89 310.92 292.46 312.44Q293.04 313.96 293.04 315.72Q293.04 316.17 292.99 316.65Q292.94 317.13 292.82 317.48L279.38 317.48L279.38 314.28L290.45 314.28L288.46 315.78Q288.75 314.31 288.32 313.16Q287.89 312.01 286.91 311.34Q285.94 310.66 284.56 310.66Q283.25 310.66 282.22 311.32Q281.20 311.98 280.67 313.24Q280.14 314.50 280.27 316.30Q280.14 317.90 280.70 319.13Q281.26 320.36 282.37 321.03Q283.47 321.70 284.91 321.70Q286.35 321.70 287.36 321.10Q288.37 320.49 288.94 319.46L292.34 321.13Q291.82 322.38 290.74 323.34Q289.65 324.30 288.16 324.84Q286.67 325.38 284.88 325.38 M300.40 325L296.21 325L296.21 307.59L300.14 307.59L300.14 311.46L299.82 310.89Q300.43 308.94 301.73 308.17Q303.02 307.40 304.85 307.40L305.87 307.40L305.87 311.11L304.37 311.11Q302.58 311.11 301.49 312.22Q300.40 313.32 300.40 315.30 M317.14 325L313.42 325L306.58 307.59L311.15 307.59L316.11 321.29L314.42 321.29L319.41 307.59L323.98 307.59 M330.48 325L326.29 325L326.29 307.59L330.48 307.59L330.48 325M330.48 305.64L326.29 305.64L326.29 301.16L330.48 301.16 M342.74 325.38Q340.14 325.38 338.08 324.18Q336.02 322.98 334.83 320.92Q333.65 318.86 333.65 316.26Q333.65 313.67 334.83 311.62Q336.02 309.58 338.08 308.39Q340.14 307.21 342.74 307.21Q344.59 307.21 346.19 307.86Q347.79 308.52 348.96 309.66Q350.13 310.79 350.64 312.36L346.96 313.96Q346.48 312.65 345.34 311.85Q344.21 311.05 342.74 311.05Q341.36 311.05 340.29 311.72Q339.22 312.39 338.61 313.58QNaN 314.76 NaN 316.30QNaN 317.83 338.61 319.02Q339.22 320.20 340.29 320.87Q341.36 321.54 342.74 321.54Q344.24 321.54 345.36 320.74Q346.48 319.94 346.96 318.60L350.64 320.26Q350.13 321.74 348.98 322.90Q347.82 324.07 346.22 324.73Q344.62 325.38 342.74 325.38 M362.06 325.38Q359.38 325.38 357.36 324.17Q355.34 322.95 354.22 320.87Q353.10 318.79 353.10 316.26Q353.10 313.64 354.24 311.61Q355.38 309.58 357.34 308.39Q359.31 307.21 361.74 307.21Q363.79 307.21 365.34 307.88Q366.90 308.55 367.98 309.74Q369.07 310.92 369.65 312.44Q370.22 313.96 370.22 315.72Q370.22 316.17 370.18 316.65Q370.13 317.13 NaN 317.48L356.56 317.48L356.56 314.28L367.63 314.28L365.65 315.78Q365.94 314.31 365.50 313.16Q365.07 312.01 364.10 311.34Q363.12 310.66 361.74 310.66Q360.43 310.66 359.41 311.32Q358.38 311.98 357.86 313.24Q357.33 314.50 357.46 316.30Q357.33 317.90 357.89 319.13Q358.45 320.36 359.55 321.03Q360.66 321.70 362.10 321.70Q363.54 321.70 364.54 321.10Q365.55 320.49 366.13 319.46L369.52 321.13Q369.01 322.38 367.92 323.34Q366.83 324.30 365.34 324.84Q363.86 325.38 362.06 325.38 M380.02 325.38Q377.23 325.38 375.17 324.06Q373.10 322.73 372.34 320.46L375.47 318.95Q376.14 320.42 377.34 321.26Q378.54 322.09 380.02 322.09Q381.17 322.09 381.84 321.58Q382.51 321.06 382.51 320.23Q382.51 319.72 382.24 319.38Q381.97 319.05 381.50 318.81Q381.04 318.57 380.50 318.41L377.65 317.61Q375.44 316.97 374.30 315.66Q373.17 314.34 373.17 312.55Q373.17 310.95 373.98 309.75Q374.80 308.55 376.26 307.88Q377.71 307.21 379.60 307.21Q382.06 307.21 383.95 308.39Q385.84 309.58 386.64 311.72L383.44 313.22Q382.99 312.04 381.94 311.34Q380.88 310.63 379.57 310.63Q378.51 310.63 377.90 311.11Q377.30 311.59 377.30 312.36Q377.30 312.84 377.55 313.19Q377.81 313.54 378.27 313.77Q378.74 313.99 379.34 314.18L382.13 315.02Q384.27 315.66 385.44 316.94Q386.61 318.22 386.61 320.07Q386.61 321.64 385.78 322.84Q384.94 324.04 383.47 324.71QNaN 325.38 380.02 325.38  M403.44 325.38Q401.23 325.38 399.57 324.58Q397.90 323.78 396.96 322.33Q396.02 320.87 396.02 318.92Q396.02 317.29 396.61 316.09Q397.20 314.89 398.06 314.04Q398.93 313.19 399.78 312.65Q400.62 312.10 401.20 311.78L403.28 310.66Q404.30 310.12 405.15 309.56QNaN 309 406.51 308.31Q407.02 307.62 407.02 306.70Q407.02 305.64 406.34 304.92Q405.65 304.20 404.59 304.20Q403.57 304.20 402.85 304.92Q402.13 305.64 402.13 306.73Q402.13 307.53 402.50 308.30Q402.86 309.06 403.38 309.72Q403.89 310.38 404.37 310.89L417.01 325L411.98 325L401.33 313.32Q400.59 312.52 399.86 311.58Q399.12 310.63 398.64 309.48Q398.16 308.33 398.16 306.92Q398.16 305.06 399.04 303.67Q399.92 302.28 401.38 301.53Q402.83 300.78 404.56 300.78Q406.32 300.78 407.74 301.54Q409.17 302.31 410.02 303.66Q410.86 305 410.86 306.73Q410.86 308.49 410.05 309.72Q409.23 310.95 408.10 311.80Q406.96 312.65 405.94 313.22L403.79 314.50Q403.09 314.89 402.30 315.48Q401.52 316.07 400.98 316.89Q400.43 317.70 400.43 318.86Q400.43 320.23 401.28 321.02Q402.13 321.80 403.60 321.80Q404.50 321.80 405.20 321.50Q405.90 321.19 406.45 320.73Q406.99 320.26 407.38 319.74Q407.76 319.21 408.08 318.76L411.82 313.32L416.21 313.32L411.89 320.04Q411.41 320.84 410.70 321.77QNaN 322.70 409.01 323.51Q408.02 324.33 406.66 324.86Q405.30 325.38 403.44 325.38  M429.71 325L425.01 325L433.23 301.16L438.86 301.16L447.09 325L442.35 325L440.66 319.88L431.44 319.88L429.71 325M436.66 304.17L432.69 316.04L439.41 316.04L435.44 304.17 M454.10 325L449.74 325L449.74 301.16L454.10 301.16  M467.12 325L462.42 325L470.64 301.16L476.27 301.16L484.50 325L479.76 325L478.06 319.88L468.85 319.88L467.12 325M474.06 304.17L470.10 316.04L476.82 316.04L472.85 304.17 M493.01 325.38Q490.99 325.38 489.50 324.49Q488.02 323.59 487.23 321.99Q486.45 320.39 486.45 318.25L486.45 307.59L490.64 307.59L490.64 317.90Q490.64 318.98 491.07 319.80Q491.50 320.62 492.32 321.08Q493.14 321.54 494.16 321.54Q495.18 321.54 495.98 321.08Q496.78 320.62 497.23 319.78Q497.68 318.95 497.68 317.80L497.68 307.59L501.87 307.59L501.87 325L497.90 325L497.90 321.58L498.26 322.18Q497.65 323.78 496.26 324.58Q494.86 325.38 493.01 325.38 M513.71 325.19Q510.77 325.19 509.15 323.58Q507.54 321.96 507.54 319.02L507.54 311.34L504.53 311.34L504.53 307.59L504.85 307.59Q506.13 307.59 506.83 306.92Q507.54 306.25 507.54 304.97L507.54 303.62L511.73 303.62L511.73 307.59L515.73 307.59L515.73 311.34L511.73 311.34L511.73 318.79Q511.73 319.66 512.03 320.26Q512.34 320.87 512.99 321.19Q513.65 321.51 514.67 321.51Q514.90 321.51 515.20 321.48Q515.50 321.45 515.79 321.42L515.79 325Q515.34 325.06 514.77 325.13Q514.19 325.19 513.71 325.19 M527.50 325.38Q524.94 325.38 522.85 324.20Q520.75 323.02 519.52 320.97Q518.29 318.92 518.29 316.30Q518.29 313.67 519.52 311.62Q520.75 309.58 522.83 308.39Q524.91 307.21 527.50 307.21Q530.06 307.21 532.14 308.39Q534.22 309.58 535.46 311.61Q536.69 313.64 536.69 316.30Q536.69 318.92 535.44 320.97Q534.19 323.02 532.11 324.20Q530.03 325.38 527.50 325.38M527.50 321.54Q528.91 321.54 529.98 320.87Q531.06 320.20 531.68 319Q532.30 317.80 532.30 316.30Q532.30 314.76 531.68 313.59Q531.06 312.42 529.98 311.74Q528.91 311.05 527.50 311.05Q526.06 311.05 524.98 311.74Q523.89 312.42 523.26 313.59Q522.64 314.76 522.64 316.30Q522.64 317.80 523.26 319Q523.89 320.20 524.98 320.87Q526.06 321.54 527.50 321.54 M544.05 325L539.86 325L539.86 307.59L543.79 307.59L543.79 311.62L543.34 310.95Q543.82 309.06 545.26 308.14Q546.70 307.21 548.66 307.21Q550.80 307.21 552.43 308.33Q554.06 309.45 554.54 311.27L553.36 311.37Q554.16 309.29 555.76 308.25Q557.36 307.21 559.44 307.21Q561.30 307.21 562.75 308.04Q564.21 308.87 565.04 310.36Q565.87 311.85 565.87 313.80L565.87 325L561.68 325L561.68 314.79Q561.68 313.64 561.26 312.81Q560.85 311.98 560.11 311.51Q559.38 311.05 558.32 311.05Q557.33 311.05 556.56 311.51Q555.79 311.98 555.38 312.81Q554.96 313.64 554.96 314.79L554.96 325L550.77 325L550.77 314.79Q550.77 313.64 550.35 312.81Q549.94 311.98 549.18 311.51Q548.43 311.05 547.41 311.05Q546.42 311.05 545.65 311.51Q544.88 311.98 544.46 312.81Q544.05 313.64 544.05 314.79 M574.70 325.38Q572.88 325.38 571.54 324.78Q570.19 324.17 569.46 323.03Q568.72 321.90 568.72 320.39Q568.72 318.95 569.36 317.82QNaN 316.68 571.34 315.91Q572.69 315.14 574.74 314.82L580.43 313.90L580.43 317.10L575.54 317.93Q574.29 318.15 573.68 318.73Q573.07 319.30 573.07 320.23Q573.07 321.13 573.76 321.66Q574.45 322.18 575.47 322.18Q576.78 322.18 577.79 321.62Q578.80 321.06 579.36 320.07Q579.92 319.08 579.92 317.90L579.92 313.42Q579.92 312.30 579.04 311.54Q578.16 310.79 576.72 310.79Q575.38 310.79 574.34 311.51Q573.30 312.23 572.82 313.42L569.39 311.75Q569.90 310.38 571.01 309.37Q572.11 308.36 573.62 307.78Q575.12 307.21 576.88 307.21Q579.02 307.21 580.66 307.99Q582.29 308.78 583.20 310.17Q584.11 311.56 584.11 313.42L584.11 325L580.14 325L580.14 322.02L581.04 321.96Q580.37 323.08 579.44 323.83Q578.51 324.58 577.33 324.98Q576.14 325.38 574.70 325.38 M595.92 325.19Q592.98 325.19 591.36 323.58Q589.74 321.96 589.74 319.02L589.74 311.34L586.74 311.34L586.74 307.59L587.06 307.59Q588.34 307.59 589.04 306.92Q589.74 306.25 589.74 304.97L589.74 303.62L593.94 303.62L593.94 307.59L597.94 307.59L597.94 311.34L593.94 311.34L593.94 318.79Q593.94 319.66 594.24 320.26Q594.54 320.87 595.20 321.19Q595.86 321.51 596.88 321.51Q597.10 321.51 597.41 321.48Q597.71 321.45 598 321.42L598 325Q597.55 325.06 596.98 325.13Q596.40 325.19 595.92 325.19 M605.39 325L601.20 325L601.20 307.59L605.39 307.59L605.39 325M605.39 305.64L601.20 305.64L601.20 301.16L605.39 301.16 M617.78 325.38Q615.22 325.38 613.12 324.20Q611.02 323.02 609.79 320.97Q608.56 318.92 608.56 316.30Q608.56 313.67 609.79 311.62Q611.02 309.58 613.10 308.39Q615.18 307.21 617.78 307.21Q620.34 307.21 622.42 308.39Q624.50 309.58 625.73 311.61Q626.96 313.64 626.96 316.30Q626.96 318.92 625.71 320.97Q624.46 323.02 622.38 324.20Q620.30 325.38 617.78 325.38M617.78 321.54Q619.18 321.54 620.26 320.87Q621.33 320.20 621.95 319Q622.58 317.80 622.58 316.30Q622.58 314.76 621.95 313.59Q621.33 312.42 620.26 311.74Q619.18 311.05 617.78 311.05Q616.34 311.05 615.25 311.74Q614.16 312.42 613.54 313.59Q612.91 314.76 612.91 316.30Q612.91 317.80 613.54 319Q614.16 320.20 615.25 320.87Q616.34 321.54 617.78 321.54 M634.32 325L630.13 325L630.13 307.59L634.06 307.59L634.06 311.02L633.74 310.41Q634.35 308.84 635.74 308.02Q637.14 307.21 638.99 307.21Q640.91 307.21 642.40 308.04Q643.89 308.87 644.72 310.36Q645.55 311.85 645.55 313.80L645.55 325L641.36 325L641.36 314.79Q641.36 313.64 640.91 312.81Q640.46 311.98 639.68 311.51Q638.90 311.05 637.84 311.05Q636.82 311.05 636.02 311.51Q635.22 311.98 634.77 312.81Q634.32 313.64 634.32 314.79" fill="#00D2FF"/>

  <!-- Pill tags for services -->
  <g transform="translate(80, 420)">
    <rect x="0" y="0" width="220" height="42" rx="21" fill="#111827" stroke="#1E293B"/>
    <text x="110" y="27" font-family="system-ui, sans-serif" font-size="14" font-weight="600" fill="#94A3B8" text-anchor="middle">AI AUTOMATION</text>

    <rect x="236" y="0" width="230" height="42" rx="21" fill="#111827" stroke="#1E293B"/>
    <text x="351" y="27" font-family="system-ui, sans-serif" font-size="14" font-weight="600" fill="#94A3B8" text-anchor="middle">AI AGENTS &amp; CHATBOTS</text>

    <rect x="482" y="0" width="250" height="42" rx="21" fill="#111827" stroke="#1E293B"/>
    <text x="607" y="27" font-family="system-ui, sans-serif" font-size="14" font-weight="600" fill="#94A3B8" text-anchor="middle">CUSTOM SOFTWARE DEV</text>

    <rect x="748" y="0" width="180" height="42" rx="21" fill="#111827" stroke="#1E293B"/>
    <text x="838" y="27" font-family="system-ui, sans-serif" font-size="14" font-weight="600" fill="#94A3B8" text-anchor="middle">CLOUD &amp; DEVOPS</text>
  </g>

  <!-- Footer bar -->
  <line x1="80" y1="520" x2="1120" y2="520" stroke="#1E293B" stroke-width="1"/>
  <text x="80" y="555" font-family="system-ui, sans-serif" font-size="16" font-weight="500" fill="#64748B">Ahmedabad, Gujarat, India</text>
  <text x="1120" y="555" font-family="system-ui, sans-serif" font-size="18" font-weight="700" fill="#00D2FF" text-anchor="end">vesharo.com</text>
</svg>