<svg width="70" height="56" viewBox="0 0 70 56" fill="none" xmlns="http://www.w3.org/2000/svg">
<g clip-path="url(#clip0_19943_341)">
<mask id="path-1-inside-1_19943_341" fill="white">
<path d="M28.4102 0H2.05078C0.918066 0 0 1.02482 0 2.28924V31.7137C0 32.9782 0.918066 34.0029 2.05078 34.0029H13.1794V53.7823C13.1794 55.0462 14.0975 56.0715 15.2302 56.0715H21.8206C22.2509 56.0715 22.6704 55.9203 23.0195 55.6394C23.3686 55.3584 23.6296 54.9619 23.7655 54.5061L30.3554 32.4375C30.4253 32.2045 30.4611 31.96 30.4611 31.7138V2.28924C30.4611 1.02482 29.5429 0 28.4102 0ZM67.9492 0H41.5898C40.457 0 39.5391 1.02482 39.5391 2.28924V31.7137C39.5391 32.9782 40.457 34.0029 41.5898 34.0029H52.719V53.7823C52.719 55.0462 53.6369 56.0715 54.7698 56.0715H61.3594C61.7898 56.0715 62.2093 55.9203 62.5584 55.6393C62.9076 55.3584 63.1687 54.9619 63.3049 54.5061L69.8947 32.4375C69.964 32.2045 69.9999 31.96 69.9999 31.7138V2.28924C69.9999 1.02482 69.0818 0 67.9491 0H67.9492Z"/>
</mask>
<path d="M13.1794 34.0029H14.1794V33.0029H13.1794V34.0029ZM21.8206 56.0715V57.0715H21.8206L21.8206 56.0715ZM23.7655 54.5061L22.8074 54.22L22.8073 54.2203L23.7655 54.5061ZM30.3554 32.4375L29.3975 32.1504L29.3972 32.1514L30.3554 32.4375ZM52.719 34.0029H53.719V33.0029H52.719V34.0029ZM61.3594 56.0715V57.0715H61.3595L61.3594 56.0715ZM63.3049 54.5061L64.263 54.7923L64.2631 54.7923L63.3049 54.5061ZM69.8947 32.4375L70.8529 32.7236L70.8532 32.7226L69.8947 32.4375ZM28.4102 -1H2.05078V1H28.4102V-1ZM2.05078 -1C0.265172 -1 -1 0.578823 -1 2.28924H1C1 1.47081 1.57096 1 2.05078 1V-1ZM-1 2.28924V31.7137H1V2.28924H-1ZM-1 31.7137C-1 33.4243 0.265213 35.0029 2.05078 35.0029V33.0029C1.57092 33.0029 1 32.5322 1 31.7137H-1ZM2.05078 35.0029H13.1794V33.0029H2.05078V35.0029ZM12.1794 34.0029V53.7823H14.1794V34.0029H12.1794ZM12.1794 53.7823C12.1794 55.4921 13.4445 57.0715 15.2302 57.0715V55.0715C14.7505 55.0715 14.1794 54.6004 14.1794 53.7823H12.1794ZM15.2302 57.0715H21.8206V55.0715H15.2302V57.0715ZM21.8206 57.0715C22.489 57.0715 23.1276 56.836 23.6465 56.4184L22.3925 54.8603C22.2132 55.0047 22.0129 55.0715 21.8206 55.0715L21.8206 57.0715ZM23.6465 56.4184C24.1633 56.0024 24.5337 55.4293 24.7238 54.792L22.8073 54.2203C22.7255 54.4945 22.5738 54.7144 22.3925 54.8603L23.6465 56.4184ZM24.7237 54.7923L31.3136 32.7236L29.3972 32.1514L22.8074 54.22L24.7237 54.7923ZM31.3133 32.7247C31.4113 32.3978 31.4611 32.0566 31.4611 31.7138H29.4611C29.4611 31.8634 29.4392 32.0111 29.3975 32.1504L31.3133 32.7247ZM31.4611 31.7138V2.28924H29.4611V31.7138H31.4611ZM31.4611 2.28924C31.4611 0.578733 30.1957 -1 28.4102 -1V1C28.8901 1 29.4611 1.4709 29.4611 2.28924H31.4611ZM67.9492 -1H41.5898V1H67.9492V-1ZM41.5898 -1C39.8041 -1 38.5391 0.578868 38.5391 2.28924H40.5391C40.5391 1.47077 41.1099 1 41.5898 1V-1ZM38.5391 2.28924V31.7137H40.5391V2.28924H38.5391ZM38.5391 31.7137C38.5391 33.4242 39.8041 35.0029 41.5898 35.0029V33.0029C41.1099 33.0029 40.5391 32.5322 40.5391 31.7137H38.5391ZM41.5898 35.0029H52.719V33.0029H41.5898V35.0029ZM51.719 34.0029V53.7823H53.719V34.0029H51.719ZM51.719 53.7823C51.719 55.4921 52.9839 57.0715 54.7698 57.0715V55.0715C54.29 55.0715 53.719 54.6004 53.719 53.7823H51.719ZM54.7698 57.0715H61.3594V55.0715H54.7698V57.0715ZM61.3595 57.0715C62.0279 57.0714 62.6664 56.8359 63.1853 56.4184L61.9316 54.8602C61.7521 55.0046 61.5517 55.0715 61.3592 55.0715L61.3595 57.0715ZM63.1853 56.4184C63.7022 56.0025 64.0727 55.4296 64.263 54.7923L62.3467 54.22C62.2648 54.4943 62.113 54.7142 61.9316 54.8602L63.1853 56.4184ZM64.2631 54.7923L70.8529 32.7236L68.9365 32.1514L62.3467 54.22L64.2631 54.7923ZM70.8532 32.7226C70.9501 32.3971 70.9999 32.0565 70.9999 31.7138H68.9999C68.9999 31.8634 68.978 32.0119 68.9362 32.1524L70.8532 32.7226ZM70.9999 31.7138V2.28924H68.9999V31.7138H70.9999ZM70.9999 2.28924C70.9999 0.578823 69.7347 -1 67.9491 -1V1C68.4289 1 68.9999 1.47081 68.9999 2.28924H70.9999ZM67.9491 1H67.9492V-1H67.9491V1Z" fill="#BBBBB9" mask="url(#path-1-inside-1_19943_341)"/>
</g>
<defs>
<clipPath id="clip0_19943_341">
<rect width="70" height="56" fill="white"/>
</clipPath>
</defs>
</svg>
